<svg width="75" height="98" viewBox="0 0 75 98" fill="none" xmlns="http://www.w3.org/2000/svg">
<path fill-rule="evenodd" clip-rule="evenodd" d="M34.2928 0.340503C31.8543 0.855522 31.1888 1.08324 29.4089 2.0116C27.7248 2.88983 25.7913 4.62253 24.82 6.1239C24.1041 7.23024 23.1675 9.36119 23.3287 9.51682C23.3872 9.57339 24.2975 9.44132 25.352 9.22348C27.1266 8.85684 27.3694 8.7451 28.6179 7.7209C31.1519 5.6423 33.9136 4.28811 37.4675 3.38169C40.5648 2.59185 43.736 2.32065 46.7219 2.59044C47.9816 2.7042 49.7946 2.84936 50.7505 2.91319C52.3732 3.0213 52.484 3.00379 52.4142 2.65044C52.3178 2.1624 49.5495 1.14686 46.706 0.55674C43.6471 -0.0784769 36.838 -0.196864 34.2928 0.340503ZM40.8917 6.90791C37.5568 7.50708 34.1659 8.80691 32.5629 10.1009L31.9382 10.6048L32.4565 10.9685C32.7415 11.1684 33.6785 11.6059 34.5387 11.9407C35.3988 12.2755 36.5453 12.8445 37.0862 13.2051L38.0699 13.8607L39.0643 13.3742C44.566 10.683 52.3247 11.2743 59.9439 14.9658C63.2956 16.5896 65.1321 17.8534 67.9604 20.4826C69.2201 21.6536 70.4584 22.7805 70.7122 22.9866L71.1737 23.3613L70.9942 22.7827C70.6814 21.7738 70.5099 21.4297 69.6522 20.09C67.6651 16.9864 64.5662 13.759 61.5056 11.6055C59.9595 10.5177 56.7517 8.93073 54.6967 8.23713C50.5996 6.85415 44.4737 6.26423 40.8917 6.90791ZM24.6505 13.3468C21.7089 13.8029 19.801 14.2492 17.993 14.9042C16.5326 15.4333 16.1509 15.6836 14.9682 16.887C14.0189 17.853 13.3349 18.3593 12.6778 18.5828C12.1624 18.7582 9.3225 19.298 6.3668 19.7824C3.1373 20.3119 0.785854 20.7945 0.474147 20.992C0.0146039 21.2829 -0.0374469 21.4402 0.0179399 22.3663L0.0804036 23.4121L2.912 23.3458C5.32694 23.2893 5.7944 23.3285 6.08737 23.6118C6.53546 24.0451 6.52567 24.7775 6.06675 25.1764C5.64677 25.5412 3.37425 26.9344 2.18739 27.5548L1.37929 27.9772L1.48777 29.1351C1.61645 30.5064 2.03893 31.3882 3.07045 32.4384C4.24398 33.6331 4.72394 33.7908 7.74938 33.9752C12.3404 34.2548 14.6563 35.4298 16.1197 38.2224C17.1137 40.119 16.9892 41.8871 15.7601 43.3289C14.796 44.4598 13.6699 44.938 11.949 44.9472C10.6405 44.9543 10.2784 44.8588 8.40924 44.0138C6.10298 42.9715 5.02752 42.6425 3.92083 42.6409L3.1804 42.6397L2.82767 44.4187C2.3015 47.0725 2.35834 48.3412 3.06837 49.7872C3.96393 51.6111 5.69237 52.9983 7.94886 53.7042C8.87482 53.9939 9.44742 53.7068 9.26794 53.0428C9.11302 52.4702 10.0484 51.7085 12.2682 50.6C15.3018 49.0851 16.867 48.6361 20.7482 48.1676C23.4174 47.8455 24.6099 47.3858 26.4786 45.9591C29.6771 43.5173 31.1567 39.6831 30.2847 36.0963C30.0963 35.3211 29.5713 33.9085 29.1183 32.957C27.8943 30.3874 28.0059 30.1128 29.856 31.143C31.6257 32.1283 32.7727 33.2512 33.3172 34.5305C33.7455 35.5368 33.8116 36.0194 33.8072 38.1096C33.8026 40.2939 33.7399 40.695 33.1544 42.2896C32.2638 44.7151 31.3739 46.0922 29.5437 47.8769C26.5099 50.8353 23.2675 52.6069 17.571 54.4181C9.60089 56.9521 5.34131 59.8733 2.69274 64.621C0.816879 67.9838 0.743171 72.365 2.50639 75.7163C3.02423 76.7006 3.30783 76.5092 3.30783 75.1759C3.30783 71.8611 5.36713 67.8519 8.6564 64.7632C11.8122 61.7997 15.1183 59.8522 22.4641 56.6298C29.3048 53.6291 33.8276 49.04 35.3988 43.5053C36.0524 41.2036 35.8765 39.1886 34.7398 35.9553C33.6244 32.7825 32.6316 31.1549 30.46 28.9394C29.4981 27.9576 28.7108 27.0679 28.7108 26.9622C28.7108 26.6639 29.9499 25.7274 30.3449 25.7274C31.0174 25.7274 33.8176 27.4976 34.9041 28.6098C35.5046 29.2245 36.5611 30.5716 37.2522 31.6032C40.2847 36.1313 40.7845 41.4395 38.6868 46.8394C36.5732 52.2803 32.5462 56.0483 24.0258 60.5569C19.036 63.1974 17.71 64.0035 16.1761 65.3297C13.3141 67.804 11.4209 70.1286 10.1756 72.6981C8.92396 75.281 8.63141 76.5694 8.63537 79.4843C8.63932 82.3461 8.90126 83.4474 10.1918 86.0277C11.3229 88.2894 14.002 91.2931 14.5057 90.864C14.5378 90.8369 14.4206 90.0201 14.2455 89.0492C13.2385 83.4651 14.6525 79.2234 19.1897 74.2196C21.235 71.9638 23.3578 70.3948 29.4308 66.6505C31.831 65.1707 34.4747 63.4563 35.306 62.8406C38.2833 60.6356 41.6194 56.8809 43.0959 54.0732C44.796 50.8402 45.5129 48.3114 45.7197 44.8168C46.1366 37.7724 43.3 31.9928 36.5711 26.176C35.5154 25.2634 35.313 24.607 35.9092 24.0304C36.1509 23.7968 36.6619 23.7141 37.8621 23.7141H39.4877L40.3324 22.6571C41.66 20.9958 42.4694 20.3387 43.8601 19.7922C46.0974 18.9132 48.1578 19.191 49.1231 20.5018C49.7096 21.2982 49.9002 22.9399 49.5316 24.0199C48.9534 25.714 46.7604 27.2216 44.4972 27.4807C43.9457 27.5439 43.4945 27.6574 43.4945 27.7332C43.4945 27.8087 43.7826 28.3851 44.1347 29.0137C44.7186 30.056 44.8371 30.1568 45.4788 30.1568C46.3279 30.1568 48.5072 29.4155 49.7823 28.6931C53.8497 26.3882 55.0772 20.9302 52.2324 17.7974C50.8163 16.2378 48.2029 15.482 45.4894 15.8468C42.2924 16.2769 41.0706 16.9375 37.7759 20.0173C37.2476 20.511 36.9736 20.626 36.5228 20.5426L35.946 20.4361L36.0893 18.728L36.2325 17.02L35.2287 16.0887C34.2757 15.2044 32.3055 14.1347 30.4806 13.5103C29.2446 13.0875 26.7697 13.0181 24.6505 13.3468ZM15.9171 19.3296C15.4669 19.9509 15.5123 20.9433 16.0193 21.5666C16.254 21.8551 17.1501 22.4275 18.0109 22.8391C19.4095 23.5073 19.7477 23.5868 21.1884 23.5868C22.562 23.5868 23.0084 23.4928 24.2055 22.9512C25.833 22.2149 28.5025 20.3606 28.5025 19.9668C28.5025 19.8188 28.2096 19.5512 27.8516 19.3722C27.0296 18.9611 25.9847 19.0721 23.9286 19.7886C21.5857 20.6048 20.0073 20.5585 18.0055 19.6147C17.1508 19.2118 16.4041 18.882 16.3462 18.882C16.2885 18.882 16.0953 19.0833 15.9171 19.3296ZM57.4484 18.9323C57.45 18.9599 57.5866 19.3451 57.7515 19.788C58.1461 20.8468 58.149 23.3358 57.7576 24.789C57.5858 25.4266 57.4452 25.9849 57.4452 26.0298C57.4452 26.0745 58.2652 26.5211 59.2672 27.0222C61.7094 28.2435 65.2296 30.8331 66.9632 32.6838C68.8195 34.6654 70.1097 36.5662 71.6026 39.519C72.9731 42.2296 73.5143 43.6776 74.0648 46.1075C74.2724 47.024 74.53 47.7738 74.637 47.7738C74.9599 47.7738 75.1005 45.6843 74.9214 43.5457C74.4658 38.1064 72.2102 31.9411 69.1418 27.7493C67.769 25.8738 64.4819 22.7392 62.6508 21.5598C60.164 19.9575 57.4261 18.575 57.4484 18.9323ZM55.053 29.5456C54.8462 30.1756 53.2088 31.4468 51.6742 32.1686C49.9668 32.9719 49.978 32.9631 50.3757 33.1783C50.87 33.4459 54.2443 36.0832 55.7293 37.3629C57.4286 38.8272 59.9199 41.6769 61.3104 43.7471C64.1281 47.9417 65.3824 51.6344 65.7697 56.8754C66.0127 60.162 65.7914 63.6995 65.1569 66.6712C64.6499 69.0458 64.6189 69.8202 65.0311 69.8202C65.4026 69.8202 65.8597 69.191 67.1059 66.9634C70.6146 60.6907 71.3359 52.2714 68.9707 45.1935C67.1504 39.7463 64.7657 36.1851 60.6814 32.8141C58.8239 31.2809 55.7089 29.1502 55.3249 29.1502C55.2469 29.1502 55.1244 29.3281 55.053 29.5456ZM49.0019 37.3146C49.5047 38.4745 49.9762 41.0089 50.0863 43.1431C50.5115 51.3918 46.6457 59.3593 39.4191 65.1284C37.0675 67.0059 36.2532 67.5877 32.0423 70.3992C26.7901 73.9061 24.0191 76.5871 21.9515 80.162C20.1798 83.2253 19.564 86.765 20.2485 89.9538C20.6709 91.9233 22.6295 95.6895 23.9246 97.0233C24.9618 98.0916 25.5162 98.3065 25.2939 97.5543C24.8383 96.0124 24.69 93.7033 24.9332 91.9374C25.212 89.9123 25.6653 88.7158 26.9051 86.7324C29.4173 82.7135 32.5637 79.7734 38.3564 76.032C47.0275 70.4316 52.2528 63.5278 53.7248 55.7266C54.167 53.3818 54.1148 45.936 53.6442 44.2504C52.9308 41.6956 50.9223 38.3617 49.5118 37.3905C48.8922 36.9638 48.847 36.9572 49.0019 37.3146ZM58.3762 52.1529C58.3706 56.0999 58.3275 56.595 57.8198 58.5453C56.4006 63.9967 55.13 66.7635 52.1356 70.9233C48.786 75.5764 44.2418 79.7313 38.3268 83.5491C33.4919 86.6696 32.2536 87.7383 32.2514 88.7921C32.2507 89.0917 32.6503 89.0041 35.1136 88.1651C42.4377 85.6706 48.3847 81.9181 52.6778 77.082C55.7595 73.6107 57.8871 70.1489 59.2218 66.4347C60.488 62.9109 60.6718 61.7319 60.6722 57.1359C60.6727 53.4452 60.6229 52.8422 60.2015 51.4363C59.7176 49.8218 58.8064 47.8745 58.5349 47.8745C58.4509 47.8745 58.3795 49.7998 58.3762 52.1529Z" fill="#29A3FF"/>
</svg>
